# xmcd
#
# Track frame offsets: 
#        150
#        15267
#        31981
#        53718
#        74922
#        92025
#        109601
#        125404
#        145917
#        162921
#        179703
#        199323
#        216149
#        232985
#        258940
#        284693
#        305200
#
# Disc length: 4292 seconds
#
# Revision: 11
# Processed by: cddbd v1.5.2PL0 Copyright (c) Steve Scherf et al.
# Submitted via: ExactAudioCopyFreeDBPlugin 1.0
#
DISCID=0110c211
DTITLE=Dierks Bentley - Greatest Hits - Every mile a memory 2003-2008
DYEAR=2008
DGENRE=Country
TTITLE0=Free and Easy (Down the Road I Go)
TTITLE1=Trying to Stop Your Leaving
TTITLE2=Sweet and Wild
TTITLE3=Come a Little Closer
TTITLE4=How Am I Doin'
TTITLE5=Every Mile a Memory
TTITLE6=My Last Name
TTITLE7=Lot of Leavin' Left to Do
TTITLE8=With the Band
TTITLE9=Settle for a Slowdown
TTITLE10=What Was I Thinkin'
TTITLE11=Long Trip Alone
TTITLE12=So So Long (Live)
TTITLE13=Come aLittle Closer (Live)
TTITLE14=Lot of Leavin' Left to Do (Live)
TTITLE15=Wish it Would Break (Live)
TTITLE16=Free and Easy (Down the Road I Go) (Live)
EXTD=
EXTT0=
EXTT1=
EXTT2=
EXTT3=
EXTT4=
EXTT5=
EXTT6=
EXTT7=
EXTT8=
EXTT9=
EXTT10=
EXTT11=
EXTT12=
EXTT13=
EXTT14=
EXTT15=
EXTT16=
PLAYORDER=
